<?xml version="1.0" standalone="no"?>
<!DOCTYPE svg PUBLIC "-//W3C//DTD SVG 20010904//EN"
 "http://www.w3.org/TR/2001/REC-SVG-20010904/DTD/svg10.dtd">
<svg version="1.0" xmlns="http://www.w3.org/2000/svg"
 width="1980.000000pt" height="994.000000pt" viewBox="0 0 1980.000000 994.000000"
 preserveAspectRatio="xMidYMid meet">

<g transform="translate(0.000000,994.000000) scale(0.100000,-0.100000)"
fill="#000000" stroke="none">
<path d="M4318 9605 c-2 -3 -849 -5 -1882 -5 -1860 -1 -1877 -1 -1931 -21 -30
-11 -76 -40 -104 -65 -47 -42 -102 -131 -101 -163 1 -9 9 5 19 30 23 59 64
113 106 139 18 11 35 20 39 20 3 0 6 -157 6 -349 0 -255 -3 -352 -12 -357 -6
-4 -44 -9 -84 -12 l-74 -5 -3 259 c-1 143 -2 -1773 -2 -4256 0 -2483 2 -4398
5 -4255 l5 259 55 -3 c171 -8 369 -94 502 -219 130 -121 223 -310 244 -493 l7
-60 -289 3 -289 3 -57 28 c-69 34 -130 100 -157 171 -11 28 -20 44 -20 35 -2
-32 53 -120 100 -163 28 -25 74 -54 104 -65 54 -20 71 -20 1929 -21 1031 0
1883 -3 1893 -7 16 -6 16 -5 4 10 -11 15 -13 184 -10 1060 l4 1042 -110 7
c-368 24 -704 117 -1037 285 -510 257 -924 671 -1181 1181 -132 260 -220 535
-263 817 -27 171 -27 599 0 770 115 753 539 1418 1173 1841 383 256 841 411
1308 442 l110 7 -2 225 c-2 313 10 1820 15 1793 4 -27 19 -30 24 -5 7 32 18
-867 18 -1469 l0 -596 -122 -7 c-848 -48 -1607 -484 -2070 -1191 -279 -426
-428 -921 -428 -1425 0 -1129 744 -2145 1826 -2493 210 -68 442 -110 672 -123
l122 -7 0 -1071 0 -1071 57 5 58 5 -52 3 -53 3 -2 1567 -3 1567 -140 7 c-432
20 -805 192 -1108 508 -353 368 -515 876 -432 1350 118 669 623 1190 1291
1331 56 12 161 24 244 27 l145 7 2 500 c2 275 3 978 3 1563 l0 1062 5620 0
5620 0 3 -102 c1 -57 2 -760 2 -1563 l0 -1460 140 -7 c820 -39 1472 -659 1556
-1479 26 -249 -28 -541 -146 -794 -251 -538 -786 -906 -1369 -942 -58 -3 -106
-10 -106 -15 0 -10 12 -10 145 2 96 9 260 38 320 56 11 4 17 3 13 -1 -4 -4 15
-48 41 -99 27 -50 103 -199 171 -331 185 -360 200 -389 215 -399 17 -13 -24
-31 -184 -85 -203 -68 -432 -111 -673 -126 l-108 -7 0 451 c0 308 -3 450 -10
446 -15 -10 -11 -3039 4 -3060 8 -11 10 265 8 1068 l-2 1084 122 7 c1279 75
2313 1041 2474 2311 21 167 21 439 0 610 -86 685 -433 1306 -971 1736 -161
129 -286 208 -480 304 -330 163 -656 249 -1023 271 l-122 7 0 1074 c0 958 2
1074 15 1080 9 3 19 2 23 -2 4 -3 9 -478 12 -1053 l5 -1047 115 -8 c632 -41
1223 -307 1684 -757 282 -276 476 -563 620 -921 131 -328 188 -628 188 -989 0
-361 -57 -661 -188 -989 -144 -358 -338 -645 -620 -921 -461 -450 -1052 -716
-1684 -757 l-115 -8 -5 -1055 -5 -1055 70 3 c39 1 894 4 1900 5 l1830 2 52 27
c71 38 120 89 154 163 l29 61 -2 4535 -3 4534 -27 52 c-34 64 -87 117 -153
152 l-50 26 -335 2 c-184 1 -1050 2 -1925 3 -1425 1 -1590 -1 -1593 -15 -3
-13 -570 -15 -5627 -15 -5615 0 -5624 0 -5630 20 -4 14 -15 20 -34 20 -15 0
-30 -2 -33 -5z m-3218 -110 c0 -14 -6 -28 -13 -31 -7 -2 -114 -3 -237 -2 -193
3 -222 5 -202 16 44 25 156 40 305 41 l147 1 0 -25z m1603 13 c2 -7 2 -21 -1
-30 -4 -17 -49 -18 -758 -18 -802 0 -766 -2 -748 44 6 14 81 16 754 16 590 0
749 -3 753 -12z m1582 -18 l0 -25 -739 -3 c-537 -1 -742 1 -747 9 -3 6 -4 20
-2 30 5 19 26 19 747 17 l741 -3 0 -25z m12943 -12 l3 -38 -745 0 c-736 0
-745 0 -751 20 -3 11 -3 29 0 40 6 20 13 20 748 18 l742 -3 3 -37z m1600 -1
l3 -37 -753 2 -753 3 -3 38 -3 37 753 -2 753 -3 3 -38z m473 32 c56 -5 118
-17 138 -26 l36 -16 -65 -7 c-36 -4 -157 -11 -269 -15 -221 -8 -221 -8 -221
48 l0 27 139 0 c76 0 185 -5 242 -11z m-18835 -1091 c-2 -172 -4 -514 -5 -760
l-1 -447 -32 -5 c-18 -3 -54 -7 -80 -10 l-48 -6 0 770 0 770 85 0 85 0 -4
-312z m-6 -1577 c0 -175 4 -280 11 -298 14 -35 15 -67 23 -618 4 -247 9 -499
11 -560 2 -60 6 -243 10 -405 3 -162 8 -351 11 -420 3 -69 7 -165 9 -215 20
-515 32 -682 53 -717 9 -16 20 -28 24 -28 4 0 8 -6 8 -14 0 -8 15 -23 32 -35
18 -11 28 -21 22 -21 -5 0 -15 5 -20 10 -7 7 -11 6 -11 -4 0 -8 3 -15 6 -14 3
0 11 -1 16 -2 6 -1 15 -3 20 -4 6 0 11 -5 12 -10 1 -5 13 -16 28 -26 22 -14
24 -18 10 -24 -9 -3 -13 -2 -10 4 3 5 -1 7 -9 4 -12 -5 -11 -9 5 -25 11 -11
17 -24 14 -29 -4 -6 1 -7 11 -3 11 4 15 3 10 -5 -3 -6 3 -17 14 -25 11 -7 17
-17 12 -22 -4 -5 -1 -5 6 -1 6 4 12 2 12 -3 0 -6 5 -11 12 -11 6 0 4 7 -5 18
-10 10 -14 22 -10 27 5 4 0 5 -10 2 -10 -4 -16 -3 -12 2 3 5 -5 17 -17 25 -15
11 -18 16 -8 17 10 0 8 3 -5 9 -15 6 -16 9 -4 9 9 1 24 -8 34 -19 10 -11 14
-20 10 -20 -5 0 0 -6 11 -14 10 -8 19 -18 19 -23 0 -4 10 -21 21 -38 12 -16
20 -38 18 -48 -2 -15 0 -16 14 -5 10 8 13 9 9 1 -4 -6 -3 -14 3 -18 6 -4 7
-12 3 -18 -4 -7 2 -5 12 3 17 14 18 14 7 -6 -9 -16 -8 -21 3 -21 8 0 11 5 8
10 -3 6 -1 7 6 3 9 -6 9 -11 -1 -24 -11 -13 -11 -14 0 -8 15 9 45 -12 36 -25
-3 -5 -10 -7 -15 -3 -5 3 -7 10 -4 15 4 5 4 9 1 9 -16 0 -13 -20 6 -36 12 -11
18 -13 14 -6 -14 24 10 12 42 -21 18 -18 29 -36 26 -40 -4 -4 -2 -7 4 -7 7 0
12 -5 12 -10 0 -7 -6 -7 -19 0 -11 5 -22 6 -25 2 -3 -5 0 -9 7 -10 33 -3 49
-10 62 -29 8 -11 11 -23 8 -27 -3 -3 2 -6 13 -6 15 0 16 -2 4 -9 -8 -6 -18 -7
-24 -4 -5 3 -6 1 -3 -5 4 -5 15 -8 25 -5 26 6 82 -74 61 -88 -10 -8 -8 -9 9
-4 16 5 22 3 20 -7 -2 -7 3 -12 10 -10 8 1 11 -2 7 -8 -3 -5 -1 -10 5 -10 6 0
8 -5 5 -11 -5 -7 -17 -2 -34 13 l-26 23 23 -26 c13 -15 31 -26 40 -25 12 1 17
-6 16 -27 -1 -27 -1 -27 18 -10 15 14 19 14 16 3 -2 -8 -7 -18 -13 -22 -6 -4
-2 -8 8 -8 10 0 16 -4 12 -9 -3 -6 4 -8 16 -6 16 3 18 1 10 -9 -15 -18 22 -29
40 -12 10 8 10 7 0 -6 -7 -10 -17 -16 -21 -13 -5 3 -11 1 -14 -4 -4 -5 5 -8
18 -7 18 2 23 -1 18 -12 -3 -10 -1 -13 6 -8 11 7 17 -6 13 -28 -1 -5 5 -3 14
4 13 11 14 10 8 -5 -5 -15 -3 -17 11 -12 9 4 15 3 11 -2 -3 -5 2 -16 11 -25 8
-9 13 -20 9 -26 -4 -6 1 -7 11 -3 13 5 15 3 9 -7 -5 -8 -4 -11 2 -7 5 3 17 -3
26 -14 10 -11 23 -17 29 -13 6 4 8 3 4 -4 -3 -6 5 -19 19 -30 14 -11 25 -25
25 -32 0 -6 5 -8 10 -5 6 3 10 -1 10 -9 0 -9 5 -16 11 -16 6 0 9 -7 6 -14 -4
-10 -1 -13 9 -9 8 3 14 -1 14 -11 0 -9 3 -15 8 -15 19 3 23 -2 12 -16 -11 -13
-10 -14 3 -10 8 4 18 1 23 -6 5 -8 3 -10 -7 -4 -8 4 -5 -1 6 -12 11 -12 24
-20 30 -19 5 0 9 -13 9 -30 0 -23 5 -30 20 -32 17 -1 18 1 6 8 -8 5 -10 10 -5
10 6 0 17 -5 25 -10 10 -6 11 -10 3 -10 -27 0 -13 -30 15 -31 l27 -1 -25 -8
-25 -8 26 -1 c32 -1 56 -25 38 -37 -8 -5 -9 -3 -4 6 6 9 4 11 -4 5 -9 -5 -4
-17 20 -41 18 -18 37 -30 42 -27 6 4 8 0 4 -10 -4 -12 -1 -15 14 -12 17 3 18
1 9 -10 -13 -16 3 -30 22 -19 6 4 8 3 4 -4 -8 -13 42 -68 58 -64 6 2 8 0 3 -4
-7 -8 18 -34 373 -400 369 -380 420 -434 420 -444 0 -5 4 -10 9 -10 6 0 54
-45 107 -100 53 -55 101 -97 105 -94 5 3 9 1 9 -3 0 -11 69 -91 145 -168 33
-33 75 -78 94 -99 27 -32 41 -40 73 -42 31 -2 37 0 28 11 -11 14 -27 14 -47 2
-6 -4 -15 -2 -19 5 -4 7 -4 10 1 6 4 -4 14 -3 22 3 7 6 13 8 13 4 0 -4 8 -1
17 6 9 8 14 9 10 3 -4 -7 0 -17 8 -24 20 -17 9 -31 -20 -26 -18 3 -23 0 -22
-14 1 -15 4 -16 15 -8 10 9 12 8 10 -3 -2 -8 3 -13 10 -11 6 1 11 -4 10 -10
-2 -8 9 -13 29 -12 18 0 31 -4 30 -10 -1 -6 4 -10 11 -8 8 1 11 -2 7 -8 -3 -5
0 -10 8 -10 8 0 20 -6 26 -14 7 -8 19 -13 29 -11 9 1 11 0 5 -2 -7 -3 -13 -8
-13 -13 0 -9 -19 -8 -37 3 -6 4 -15 3 -18 -3 -4 -6 -1 -9 7 -8 7 2 12 -2 11
-9 -2 -11 21 -12 33 -1 3 4 13 4 22 1 15 -4 15 -3 2 6 -8 6 -10 11 -4 11 6 0
19 -10 30 -22 10 -12 13 -18 7 -14 -7 4 -13 2 -13 -3 0 -6 10 -11 23 -11 17 0
19 -2 8 -9 -17 -11 -55 5 -46 19 3 4 -3 7 -12 5 -10 -2 -22 -4 -28 -5 -5 0 -2
-5 8 -11 9 -6 15 -14 12 -18 -6 -10 20 -34 41 -38 8 -2 21 -4 29 -6 22 -5 27
-14 11 -20 -9 -4 -18 -2 -21 3 -4 6 -12 10 -18 10 -7 0 -4 -5 6 -11 9 -6 15
-14 12 -18 -2 -5 4 -16 14 -25 12 -11 21 -13 25 -7 4 5 15 8 26 6 11 -2 23 1
26 7 5 7 2 8 -7 3 -12 -8 -12 -6 0 8 16 20 22 22 19 5 -2 -7 3 -12 10 -10 8 1
11 -2 7 -8 -3 -6 -11 -7 -17 -4 -5 4 -3 -5 6 -18 9 -14 13 -28 9 -33 -5 -4 -2
-5 5 -1 7 4 9 13 6 19 -4 7 5 1 19 -12 15 -14 27 -21 27 -17 0 5 6 3 13 -3 8
-6 16 -8 19 -5 3 3 4 -9 3 -26 -2 -21 2 -30 12 -30 9 0 11 5 7 13 -4 6 1 5 12
-4 10 -9 27 -15 37 -14 15 3 16 1 6 -11 -8 -10 -15 -11 -24 -4 -8 7 -15 7 -19
2 -3 -6 1 -13 10 -16 8 -3 12 -10 9 -16 -3 -5 -1 -10 6 -10 7 0 10 -3 6 -6 -3
-3 -14 -1 -24 5 -14 8 -15 11 -3 11 11 0 10 3 -4 11 -10 7 -21 8 -25 2 -5 -7
-26 -10 -33 -3 -8 5 -39 7 -33 2 4 -4 11 -8 16 -8 5 -1 11 -3 14 -4 3 -1 15
-3 28 -4 12 -1 21 -6 20 -11 -1 -6 12 -11 29 -12 17 -1 37 -11 45 -22 8 -12
28 -21 51 -24 20 -2 -214 -4 -520 -5 l-558 -2 0 59 c0 33 -7 113 -15 178 -116
889 -692 1667 -1499 2025 -287 127 -579 200 -858 215 l-128 6 0 2289 0 2288
80 0 80 0 0 -269z m1334 -2042 c-3 -5 -1 -9 4 -9 6 0 13 -12 18 -27 4 -16 8
-30 9 -33 1 -3 9 -22 18 -44 9 -21 17 -40 17 -41 0 -1 8 -20 17 -41 9 -22 16
-42 15 -46 -1 -5 3 -8 9 -8 5 0 8 -4 4 -9 -3 -5 -1 -12 5 -16 6 -4 8 -11 5
-16 -4 -5 -1 -9 4 -9 6 0 10 -3 9 -7 -1 -5 4 -19 9 -33 12 -27 49 -120 65
-160 5 -14 9 -26 8 -28 -1 -2 5 -13 12 -25 8 -12 34 -71 58 -132 24 -60 47
-115 52 -121 4 -6 5 -14 1 -17 -3 -4 -1 -7 6 -7 7 0 10 -4 6 -9 -3 -5 -1 -12
5 -16 6 -4 8 -11 5 -16 -4 -5 -1 -9 4 -9 6 0 10 -3 9 -7 -1 -5 6 -25 15 -47 9
-21 17 -40 17 -41 0 -1 8 -20 17 -41 9 -22 16 -42 15 -46 -1 -5 3 -8 9 -8 5 0
8 -4 4 -9 -3 -5 -1 -12 5 -16 6 -4 8 -11 5 -16 -4 -5 -1 -9 4 -9 6 0 10 -3 9
-7 -1 -5 4 -19 9 -33 6 -14 25 -61 43 -105 18 -44 37 -91 43 -105 5 -14 10
-28 9 -32 -1 -5 3 -8 8 -8 5 0 9 -3 8 -7 -1 -9 7 -29 67 -168 24 -55 55 -129
69 -165 15 -35 38 -78 53 -95 14 -16 -15 12 -66 63 -420 426 -694 1034 -726
1614 -3 51 -8 120 -10 153 -4 54 -3 58 10 41 8 -10 12 -23 9 -27z m16592 20
c10 -17 -13 -36 -27 -22 -12 12 -4 33 11 33 5 0 12 -5 16 -11z m-16789 -25
c-9 -9 -28 6 -21 18 4 6 10 6 17 -1 6 -6 8 -13 4 -17z m-1032 -2376 c827 -119
1523 -625 1890 -1373 143 -291 213 -554 250 -937 l5 -58 -753 0 -754 0 -6 74
c-20 237 -174 493 -384 637 -121 84 -320 149 -455 149 l-58 0 0 770 0 770 63
-6 c34 -3 125 -14 202 -26z m1260 -278 c27 -30 12 -34 -15 -5 -13 14 -19 25
-13 25 5 0 18 -9 28 -20z m1481 -1452 c5 4 5 3 1 -3 -5 -5 -13 -11 -18 -11 -5
-1 -10 -3 -11 -4 -9 -9 -45 -5 -45 5 0 6 6 12 13 12 7 0 10 -5 7 -10 -3 -5 0
-7 8 -5 8 3 13 11 11 18 -2 10 0 11 11 2 8 -7 18 -8 23 -4z m57 -96 c15 -17
15 -18 -6 -19 -12 0 -16 1 -9 4 18 7 4 23 -16 17 -14 -5 -15 -4 -2 5 8 6 15
11 16 11 0 0 8 -8 17 -18z m171 -183 c18 8 22 5 24 -12 0 -12 6 -23 12 -25 5
-2 10 -8 10 -14 0 -6 -7 -5 -16 3 -9 7 -23 15 -33 16 -9 2 -22 5 -29 6 -15 4
-39 27 -28 27 5 0 2 8 -5 17 -9 12 -4 10 14 -4 21 -16 34 -20 51 -14z m62 -71
c3 -4 3 -12 -1 -18 -5 -8 -11 -8 -21 1 -8 6 -17 9 -21 5 -3 -3 -1 -6 6 -6 7 0
9 -5 6 -10 -5 -8 -12 -7 -22 1 -13 12 -13 14 2 25 16 12 39 13 51 2z m90 -30
c4 -7 4 -10 -1 -6 -4 4 -15 2 -24 -5 -14 -11 -14 -10 -2 6 16 20 18 21 27 5z
m88 -66 c3 -5 -1 -9 -9 -9 -8 0 -12 4 -9 9 3 4 7 8 9 8 2 0 6 -4 9 -8z m54
-98 c-1 -5 -9 -9 -16 -10 -10 -2 -11 1 -1 12 12 14 24 13 17 -2z"/>
<path d="M680 3482 c0 -12 22 -32 35 -32 5 0 2 5 -8 11 -9 6 -15 14 -12 20 4
5 1 9 -4 9 -6 0 -11 -4 -11 -8z"/>
<path d="M820 3308 c0 -9 7 -19 16 -22 15 -6 15 -4 3 11 -7 10 -15 20 -16 22
-2 2 -3 -3 -3 -11z"/>
<path d="M959 3113 c-12 -16 -12 -17 2 -6 9 7 20 9 24 5 5 -4 5 -1 1 6 -9 16
-11 15 -27 -5z"/>
<path d="M978 3094 c6 -3 9 -11 5 -17 -5 -8 -2 -8 9 0 8 7 18 11 21 8 4 -3 5
-2 2 2 -3 4 -16 8 -28 9 -12 2 -16 0 -9 -2z"/>
<path d="M1029 3017 c29 -32 30 -32 27 -9 -2 9 -7 17 -12 17 -5 0 -16 4 -24 9
-8 5 -4 -3 9 -17z"/>
<path d="M1085 2950 c-4 -6 -1 -9 7 -8 7 2 12 -3 10 -10 -1 -8 2 -11 8 -7 8 5
7 11 -1 21 -14 17 -16 17 -24 4z"/>
<path d="M1115 2910 c-3 -6 1 -7 9 -4 18 7 21 14 7 14 -6 0 -13 -4 -16 -10z"/>
<path d="M1758 2183 c7 -3 16 -2 19 1 4 3 -2 6 -13 5 -11 0 -14 -3 -6 -6z"/>
<path d="M3343 535 c0 -8 7 -11 15 -7 10 3 13 1 8 -6 -5 -8 -2 -10 8 -6 11 4
14 0 11 -16 -3 -18 -2 -20 10 -10 8 7 22 10 30 6 9 -3 13 -2 10 4 -3 6 -11 10
-17 10 -6 0 -20 8 -30 17 -24 21 -45 25 -45 8z"/>
<path d="M3666 247 c3 -9 10 -17 16 -17 5 0 7 -4 4 -8 -3 -5 6 -20 19 -34 13
-14 21 -28 18 -31 -3 -3 5 -3 16 0 29 8 35 20 8 19 -16 -1 -22 5 -22 21 0 12
-6 28 -12 35 -7 6 -13 8 -13 3 0 -4 -9 0 -20 10 -18 17 -20 17 -14 2z m50 -43
c2 -12 -1 -13 -12 -3 -7 6 -11 16 -8 21 7 11 17 3 20 -18z"/>
<path d="M3526 388 c3 -5 10 -6 15 -3 13 9 11 12 -6 12 -8 0 -12 -4 -9 -9z"/>
</g>
</svg>
